<?xml version="1.0" encoding="utf-8"?>
<!-- Svg Vector Icons : http://www.onlinewebfonts.com/icon -->
<!DOCTYPE svg PUBLIC "-//W3C//DTD SVG 1.1//EN" "http://www.w3.org/Graphics/SVG/1.1/DTD/svg11.dtd">
<svg version="1.1" xmlns="http://www.w3.org/2000/svg" xmlns:xlink="http://www.w3.org/1999/xlink" x="0px" y="0px" viewBox="0 0 256 256" enable-background="new 0 0 256 256" xml:space="preserve">
<metadata> Svg Vector Icons : http://www.onlinewebfonts.com/icon </metadata>
<g><g><g><path fill="#000000" d="M74.2,4c-11.9,3.4-19.5,16.2-15.8,27c2,6,6.6,11.2,12.4,14c2.8,1.4,3.7,1.5,8.4,1.5s5.6-0.2,8.3-1.5c7.2-3.6,12.8-11.3,13.4-18.4c0.7-9-6.1-19-15.1-22.2C82.2,3.3,77.5,3.1,74.2,4z M84.5,15.8c2.6,1.2,4.2,3.3,4.9,6.7c1.7,7.5-2.9,13.4-10.7,13.4c-3.6,0-7.5-2.3-9-5.3c-1.7-3.4-1.3-9.1,0.9-12.3c1.6-2.2,4.8-3.5,8.6-3.5C81.1,14.8,83.2,15.2,84.5,15.8z"/><path fill="#000000" d="M71.3,57.7c-8.2,2.6-14.7,10.5-16,19.1C55,78.8,54.5,88.3,54.1,98c-0.7,19.4-0.6,20.9,2,26.1c0.8,1.5,2.3,3.6,3.3,4.5c1.1,0.9,9.3,7,18.3,13.4c9,6.5,16.6,12,16.8,12.4c0.3,0.4,0.2,7.6-0.4,18c-0.9,19.2-0.9,20,2.1,21.5c2.1,1.1,3.6,1.1,5.7-0.2c1.2-0.7,1.8-1.6,2.2-3c0.9-3.3,2.3-36.1,1.6-38.4c-1.3-4.8-2.1-5.5-21-19c-15-10.7-18.3-13.3-19.1-14.9c-0.9-1.9-0.9-2.6-0.1-21.6c0.5-10.8,1.2-20.5,1.5-21.6c0.3-1.2,1.4-2.9,2.5-4c5.4-5.6,16.5-2.8,17.6,4.5c0.1,0.9,1.3,9.9,2.7,20c1.5,11.6,2.7,18.9,3.3,19.6c0.4,0.7,1.6,1.6,2.5,2c1.7,0.7,2.7,0.5,18.8-3.4c16-3.9,17-4.3,18.4-5.8c3-3.4,0.8-8.9-3.7-9c-0.9,0-7,1.3-13.6,2.9c-6.5,1.6-12.1,2.9-12.5,2.9c-0.5,0-1.2-3.9-2.4-12.8c-0.9-7-1.9-14.1-2.2-15.8c-1.2-7.2-6.2-13.9-12.9-17.2C81.2,56.9,75.6,56.4,71.3,57.7z"/><path fill="#000000" d="M34.7,72.4c-10.2,5.3-12.8,6.9-13.7,8.2c-0.8,1.2-11,38.5-11,40.4c0,2.8,3.9,5.7,6.8,5.1c3.3-0.7,3.8-1.9,8.7-20.9l4.6-17.7l7.5-4c7.9-4.3,9.1-5.3,9.1-8.6c0-2.2-2.4-4.7-4.7-5.1C40.6,69.5,39.3,69.9,34.7,72.4z"/><path fill="#000000" d="M176.3,140.8c-3.2,1.4-3.3,2.3-3.3,18.4v14.5l-20.8,0.2l-20.8,0.2l-1.5,1.7l-1.5,1.7v15v15h-20c-22.3,0-22.8,0.1-24.3,3.4c-0.7,1.5-0.8,4.1-0.8,16V241H55c-30.9,0-31,0-32.6,3.1c-1.1,2-1.1,3.4,0,5.4c1.6,3.1,1.4,3.1,35.8,3.1c34.8,0,34,0.1,35.7-3.4c0.7-1.5,0.8-4.1,0.8-16v-14.3h19.7c21.7,0,22.6-0.1,24.1-3.1c0.7-1.3,0.8-3.9,0.8-16v-14.5l20.8-0.2l20.8-0.2l1.5-1.7l1.5-1.7v-15v-15h28.5c31.8,0,31.1,0.1,32.9-3.6c0.8-1.7,0.8-2.2,0.2-4c-0.5-1.4-1.3-2.4-2.6-3c-1.7-0.9-3.6-1-33.4-1C183.9,140,177.7,140.1,176.3,140.8z"/><path fill="#000000" d="M61.5,148.2c-1.4,1.3-2.8,5.4-13.7,39.2c-6.7,20.7-12.1,38.5-12.1,39.4c0.1,4.5,5.6,6.8,8.9,3.7c1.4-1.3,2.8-5.3,13.7-39.2c6.7-20.7,12.1-38.4,12.1-39.4C70.4,147.5,64.9,145.2,61.5,148.2z"/></g></g></g>
</svg>